# AST/ASF file generated using VICON BodyLanguage
# -----------------------------------------------
:version 1.10
:name VICON
:units
  mass 1.0
  length 0.45
  angle deg
:documentation
   .ast/.asf automatically generated from VICON data using
   VICON BodyBuilder and BodyLanguage model FoxedUp or BRILLIANT.MOD
:root
   order TX TY TZ RX RY RZ
   axis XYZ
   position 0 0 0  
   orientation 0 0 0 
:bonedata
  begin
     id 1 
     name lhipjoint
     direction 0.612567 -0.751349 0.245431 
     length 2.42285 
     axis 0 0 0  XYZ
  end
  begin
     id 2 
     name lfemur
     direction 0.34202 -0.939693 0  
     length 7.11304  
     axis 0 0 20  XYZ
    dof rx ry rz
    limits (-160.0 20.0)
           (-70.0 70.0)
           (-60.0 70.0)
  end
  begin
     id 3 
     name ltibia
     direction 0.34202 -0.939693 0   
     length 7.84529   
     axis 0 0 20   XYZ
    dof rx
    limits (-10.0 170.0)
  end
  begin
     id 4 
     name lfoot
     direction 0.0779239 -0.214094 0.9737   
     length 1.97176   
     axis -90 7.62852e-016 20   XYZ
    dof rx rz
    limits (-45.0 90.0)
           (-70.0 20.0)
  end
  begin
     id 5 
     name ltoes
     direction 1.53565e-011 -4.21709e-011 1   
     length 0.993197   
     axis -90 7.62852e-016 20   XYZ
    dof rx
    limits (-90.0 20.0)
  end
  begin
     id 6 
     name rhipjoint
     direction -0.665722 -0.709315 0.231701   
     length 2.56642  
     axis 0 0 0  XYZ 
  end
  begin
     id 7 
     name rfemur
     direction -0.34202 -0.939693 0   
     length 7.32108   
     axis 0 0 -20   XYZ
    dof rx ry rz
    limits (-160.0 20.0)
           (-70.0 70.0)
           (-70.0 60.0)
  end
  begin
     id 8 
     name rtibia
     direction -0.34202 -0.939693 0   
     length 7.81254   
     axis 0 0 -20   XYZ
    dof rx
    limits (-10.0 170.0)
 end
 begin
     id 9 
     name rfoot
     direction -0.0832806 -0.228812 0.969902   
     length 2.08278  
     axis -90 -7.62852e-016 -20   XYZ
    dof rx rz
    limits (-45.0 90.0)
           (-20.0 70.0)
  end
  begin
     id 10 
     name rtoes
     direction -1.53589e-011 -4.22086e-011 1   
     length 1.04609   
     axis -90 -7.62852e-016 -20   XYZ
    dof rx
    limits (-90.0 20.0)
  end
  begin
     id 11 
     name lowerback
     direction -0.00506013 0.988403 -0.151766   
     length 2.01978   
     axis 0 0 0   XYZ
    dof rx ry rz
    limits (-20.0 45.0)
           (-30.0 30.0)
           (-30.0 30.0)
  end
  begin
     id 12 
     name upperback
     direction -0.00836389 0.99968 0.0238859   
     length 2.01276   
     axis 0 0 0   XYZ
    dof rx ry rz
    limits (-20.0 45.0)
           (-30.0 30.0)
           (-30.0 30.0)
  end
  begin
     id 13 
     name thorax
     direction -0.00684136 0.995386 0.0957043   
     length 2.07303   
     axis 0 0 0   XYZ
    dof rx ry rz
    limits (-20.0 45.0)
           (-30.0 30.0)
           (-30.0 30.0)
  end
  begin
     id 14 
     name lowerneck
     direction -0.0161045 0.999661 0.0204485   
     length 1.91243   
     axis 0 0 0   XYZ
    dof rx ry rz
    limits (-20.0 45.0)
           (-30.0 30.0)
           (-30.0 30.0)
  end
  begin
     id 15 
     name upperneck
     direction 0.0553583 0.990946 -0.122319   
     length 1.91574   
     axis 0 0 0   XYZ
    dof rx ry rz
    limits (-20.0 45.0)
           (-30.0 30.0)
           (-30.0 30.0)
  end
  begin
     id 16
     name head
     direction 0.0180273 0.998839 -0.0446756  
     length 1.92693  
     axis 0 0 0   XYZ
    dof rx ry rz
    limits (-20.0 45.0)
           (-30.0 30.0)
           (-30.0 30.0)
  end
  begin
     id 17 
     name lclavicle
     direction 0.945646 0.319323 -0.0615358  
     length 4.0076  
     axis 0 0 0   XYZ
    dof ry rz
    limits (-20.0 10.0)
           (0.0 20.0)
  end
  begin
     id 18 
     name lhumerus
     direction 1 -4.48967e-011 -2.79996e-027   
     length 5.64147   
     axis 180 -30 -90   XYZ
    dof rx ry rz
    limits (-60.0 90.0)
           (-90.0 90.0)
           (-90.0 90.0)
  end
  begin
     id 19
     name lradius
     direction 1 -4.48976e-011 -9.5122e-027   
     length 2.86444   
     axis 180 -30 -90   XYZ
    dof rx
    limits (-10.0 170.0)
  end
  begin
     id 20
     name lwrist
     direction 1 -4.48983e-011 -1.24047e-026   
     length 1.43222   
     axis 9.05591e-015 90 90   XYZ
    dof ry
    limits (-180.0 0.0)
 end
  begin
     id 21 
     name lhand
     direction 1 -4.4892e-011 -2.48094e-026   
     length 0.722123   
     axis 1.58305e-014 90 90   XYZ
    dof rx rz
    limits (-90.0 90.0)
           (-45.0 45.0)
  end
  begin
     id 22 
     name lfingers
     direction 1 -4.48895e-011 -4.96187e-026   
     length 0.582194   
     axis 3.1661e-014 90 90   XYZ
    dof rx
    limits (0.0 90.0)
  end
  begin
     id 23
     name lthumb
     direction 0.707107 -6.34961e-011 0.707107   
     length 0.835918   
     axis -90 45 2.85299e-015   XYZ
    dof rx rz
    limits (-45.0 45.0)
           (-45.0 45.0)
  end
  begin
     id 24 
     name rclavicle
     direction -0.932635 0.324218 -0.15835   
     length 3.65819  
     axis 0 0 0   XYZ 
    dof ry rz
    limits (-10.0 20.0)
           (-20.0 0.0)
  end
  begin
     id 25 
     name rhumerus
     direction -1 -4.48965e-011 -4.02296e-027  
     length 5.44729   
     axis 180 30 90   XYZ
    dof rx ry rz
    limits (-90.0 60.0)
           (-90.0 90.0)
           (-90.0 90.0)
  end
  begin
     id 26 
     name rradius
     direction -1 -4.48957e-011 -8.81087e-027   
     length 3.08821   
     axis 180 30 90   XYZ
    dof rx
    limits (-10.0 170.0)
  end
  begin
     id 27 
     name rwrist
     direction -1 -4.49015e-011 -1.24047e-026   
     length 1.5441   
     axis 9.05591e-015 -90 -90   XYZ
    dof ry
    limits (-180.0 0.0)
  end
  begin
     id 28
     name rhand
     direction -1 -4.4891e-011 -2.48094e-026   
     length 0.821049   
     axis 1.58305e-014 -90 -90   XYZ
    dof rx rz
    limits (-90.0 90.0)
           (-45.0 45.0)
  end
  begin
     id 29
     name rfingers
     direction -1 -4.48985e-011 -4.96187e-026   
     length 0.661951   
     axis 3.1661e-014 -90 -90   XYZ
    dof rx
    limits (0.0 90.0)
  end
  begin
     id 30
     name rthumb
     direction -0.707107 -6.34906e-011 0.707107   
     length 0.950433   
     axis -90 -45 -2.85299e-015   XYZ
    dof rx rz
    limits (-45.0 45.0)
           (-45.0 45.0)
  end
:hierarchy
  begin
    root lhipjoint rhipjoint lowerback
    lhipjoint lfemur
    lfemur ltibia
    ltibia lfoot
    lfoot ltoes
    rhipjoint rfemur
    rfemur rtibia
    rtibia rfoot
    rfoot rtoes
    lowerback upperback
    upperback thorax
    thorax lowerneck lclavicle rclavicle
    lowerneck upperneck
    upperneck head
    lclavicle lhumerus
    lhumerus lradius
    lradius lwrist
    lwrist lhand lthumb
    lhand lfingers
    rclavicle rhumerus
    rhumerus rradius
    rradius rwrist
    rwrist rhand rthumb
    rhand rfingers
  end

#!OML:ASF F:\VICON\USERDATA\INSTALL\rory3\rory3.ASF
:FULLY-SPECIFIED
:DEGREES
1770
root 3.44942 17.5045 0.286581 593.184 88.7006 598.258
lowerback 2.5561 -0.311955 3.06043
upperback -2.16539 -0.284109 -0.211964
thorax -3.68204 -0.219968 -1.91857
lowerneck 0.334821 -4.9187 -4.36222
upperneck -9.87159 -5.8984 8.1692
head -2.85832 -2.97127 3.61615
rclavicle 3.13396e-015 2.26118e-015
rhumerus 39.5753 -26.0169 -69.0789
rradius 68.3883
rwrist -63.1308
rhand -8.04155 14.318
rfingers 7.12502
rthumb 17.8689 -14.8811
lclavicle 3.13396e-015 2.26118e-015
lhumerus 38.0509 14.7638 82.1096
lradius 67.2646
lwrist 117.054
lhand -2.50999 9.65013
lfingers 7.12502
lthumb 23.1842 38.2748
rfemur 3.72871 -0.903411 20.5979
rtibia 19.5988
rfoot -22.2325 -7.06688
rtoes -5.53291
lfemur 1.30416 -0.538972 -14.3511
ltibia 18.7302
lfoot -14.3652 -3.80437
ltoes -6.8975
1771
root 3.45058 17.504 0.290147 595.491 88.6736 600.515
lowerback 2.54515 -0.286779 3.08619
upperback -2.2001 -0.248151 -0.194551
thorax -3.70992 -0.203124 -1.91711
lowerneck 0.373862 -4.93176 -4.36091
upperneck -9.85328 -5.92048 8.15388
head -2.85823 -2.98291 3.61172
rclavicle -8.44835e-016 6.06293e-015
rhumerus 39.9693 -25.9043 -68.8447
rradius 68.0632
rwrist -62.8714
rhand -7.83494 14.3779
rfingers 7.12502
rthumb 18.0677 -14.8029
lclavicle -8.44835e-016 6.06293e-015
lhumerus 38.4616 14.4918 81.838
lradius 67.0784
lwrist 116.893
lhand -2.36276 9.61666
lfingers 7.12502
lthumb 23.3254 38.2235
rfemur 3.69774 -0.801301 20.6875
rtibia 19.5649
rfoot -22.3099 -7.05126
rtoes -5.12761
lfemur 1.24269 -0.534946 -14.2851
ltibia 18.7441
lfoot -14.4135 -3.73443
ltoes -7.05693
1772
root 3.45251 17.5052 0.292209 596.693 88.6044 601.672
lowerback 2.49717 -0.26842 3.15045
upperback -2.19649 -0.22189 -0.176566
thorax -3.67791 -0.190864 -1.93624
lowerneck 0.404917 -4.94494 -4.36586
upperneck -9.88551 -5.93746 8.15304
head -2.87369 -2.99172 3.61505
rclavicle -1.11816e-016 -4.94477e-015
rhumerus 40.3443 -25.8087 -68.5701
rradius 67.8172
rwrist -62.6537
rhand -7.76657 14.4441
rfingers 7.12502
rthumb 18.1334 -14.7306
lclavicle -1.11816e-016 -4.94477e-015
lhumerus 39.0088 14.2347 81.6057
lradius 66.8212
lwrist 116.754
lhand -2.32343 9.52973
lfingers 7.12502
lthumb 23.3631 38.1318
rfemur 3.68239 -0.810337 20.7792
rtibia 19.5264
rfoot -22.3116 -7.08674
rtoes -5.10722
lfemur 1.1842 -0.570011 -14.1991
ltibia 18.7694
lfoot -14.4416 -3.73666
ltoes -6.91068
1773
root 3.45617 17.5055 0.293846 595.284 88.5869 600.248
lowerback 2.38916 -0.233792 3.15338
upperback -2.11843 -0.181187 -0.172581
thorax -3.53352 -0.167672 -1.93635
lowerneck 0.385665 -4.97792 -4.43599
upperneck -9.97446 -5.9762 8.16594
head -2.89542 -3.00796 3.63544
rclavicle 1.31695e-015 -7.62836e-015
rhumerus 40.8044 -25.7948 -68.3045
rradius 67.6187
rwrist -62.4286
rhand -7.637 14.3977
rfingers 7.12502
rthumb 18.2581 -14.7654
lclavicle 1.31695e-015 -7.62836e-015
lhumerus 39.6524 13.9839 81.4788
lradius 66.5842
lwrist 116.616
lhand -2.37453 9.6535
lfingers 7.12502
lthumb 23.3141 38.2618
rfemur 3.70036 -0.872516 20.774
rtibia 19.4942
rfoot -22.279 -7.01158
rtoes -4.94201
lfemur 1.16025 -0.551094 -14.1918
ltibia 18.7921
lfoot -14.467 -3.77186
ltoes -7.25381
1774
root 3.46065 17.5063 0.296372 595.556 88.5876 600.501
lowerback 2.3042 -0.187034 3.14395
upperback -2.07576 -0.122423 -0.150897
thorax -3.43776 -0.135951 -1.91198
lowerneck 0.404713 -5.01231 -4.57004
upperneck -10.0335 -6.01953 8.22435
head -2.91084 -3.02665 3.68414
rclavicle -4.27076e-015 -4.19933e-015
rhumerus 41.3384 -25.7931 -68.1825
rradius 67.3039
rwrist -62.1208
rhand -7.04279 14.3171
rfingers 7.12502
rthumb 18.8297 -14.7915
lclavicle -4.27076e-015 -4.19933e-015
lhumerus 40.2262 13.705 81.3175
lradius 66.3103
lwrist 116.306
lhand -2.28699 9.76245
lfingers 7.12502
lthumb 23.3981 38.3601
rfemur 3.69243 -0.87501 20.7903
rtibia 19.4881
rfoot -22.2414 -7.0009
rtoes -5.07052
lfemur 1.16089 -0.566649 -14.1777
ltibia 18.7931
lfoot -14.4836 -3.78918
ltoes -7.02214
1775
root 3.4643 17.5054 0.300715 597.289 88.5973 602.251
lowerback 2.32236 -0.159779 3.12139
upperback -2.07325 -0.0866142 -0.156389
thorax -3.44329 -0.117742 -1.90687
lowerneck 0.355986 -5.02631 -4.5475
upperneck -9.9297 -6.04081 8.24711
head -2.86471 -3.03798 3.68187
rclavicle -2.72708e-015 1.11319e-014
rhumerus 41.9671 -25.7211 -68.2294
rradius 66.8217
rwrist -61.556
rhand -6.56744 14.3147
rfingers 7.12502
rthumb 19.2868 -14.7489
lclavicle -2.72708e-015 1.11319e-014
lhumerus 40.718 13.3714 80.8944
lradius 65.9956
lwrist 115.852
lhand -2.05117 9.5684
lfingers 7.12502
lthumb 23.6243 38.137
rfemur 3.71178 -0.787287 20.8322
rtibia 19.4883
rfoot -22.2754 -7.05229
rtoes -4.90833
lfemur 1.21068 -0.552002 -14.1472
ltibia 18.7736
lfoot -14.4719 -3.75519
ltoes -7.11244
1776
root 3.46671 17.5047 0.304452 597.877 88.5928 602.823
lowerback 2.42376 -0.172825 3.13088
upperback -2.13486 -0.100032 -0.197072
thorax -3.56541 -0.127736 -1.95339
lowerneck 0.327644 -5.0079 -4.46364
upperneck -9.82576 -6.01477 8.29034
head -2.827 -3.02878 3.6759
rclavicle 6.58474e-016 -6.95746e-015
rhumerus 42.4094 -25.4956 -67.9931
rradius 66.3918
rwrist -60.8532
rhand -6.77693 14.366
rfingers 7.12502
rthumb 19.0854 -14.7176
lclavicle 6.58474e-016 -6.95746e-015
lhumerus 41.1337 13.0767 80.2894
lradius 65.6519
lwrist 115.469
lhand -1.80061 9.29911
lfingers 7.12502
lthumb 23.8646 37.8365
rfemur 3.70349 -0.779178 20.8579
rtibia 19.4775
rfoot -22.2764 -7.13191
rtoes -5.15124
lfemur 1.20397 -0.558219 -14.1246
ltibia 18.7507
lfoot -14.4437 -3.71747
ltoes -6.6607
1777
root 3.46982 17.5046 0.306806 595.404 88.6158 600.34
lowerback 2.61747 -0.204411 3.14522
upperback -2.24278 -0.135227 -0.277937
thorax -3.78942 -0.151425 -2.04279
lowerneck 0.297105 -4.99338 -4.40082
upperneck -9.6644 -6.00099 8.31589
head -2.76844 -3.02458 3.66552
rclavicle -4.94477e-015 7.45443e-016
rhumerus 42.6571 -25.2657 -67.6121
rradius 66.0135
rwrist -60.2543
rhand -6.93244 14.4191
rfingers 7.12502
rthumb 18.9358 -14.6792
lclavicle -4.94477e-015 7.45443e-016
lhumerus 41.4855 12.787 79.6302
lradius 65.3412
lwrist 115.09
lhand -1.67504 9.20472
lfingers 7.12502
lthumb 23.985 37.7263
rfemur 3.69396 -0.831115 20.8013
rtibia 19.5072
rfoot -22.2666 -7.16564
rtoes -5.39401
lfemur 1.23034 -0.560285 -14.1757
ltibia 18.6906
lfoot -14.42 -3.72214
ltoes -6.69225
1778
root 3.47276 17.5054 0.308674 594.481 88.6208 599.416
lowerback 2.73583 -0.219036 3.15546
upperback -2.27836 -0.150907 -0.315775
thorax -3.89457 -0.162186 -2.0866
lowerneck 0.194553 -4.99709 -4.30936
upperneck -9.52025 -6.01445 8.25106
head -2.70364 -3.03062 3.61621
rclavicle -4.43538e-015 -9.44227e-016
rhumerus 43.0257 -25.0658 -67.2684
rradius 65.6486
rwrist -59.7952
rhand -6.81615 14.4585
rfingers 7.12502
rthumb 19.0476 -14.6288
lclavicle -4.43538e-015 -9.44227e-016
lhumerus 41.9394 12.5476 79.1
lradius 65.0328
lwrist 114.587
lhand -1.46216 9.24367
lfingers 7.12502
lthumb 24.1892 37.7383
rfemur 3.68635 -0.891692 20.7802
rtibia 19.553
rfoot -22.2478 -7.14386
rtoes -5.54936
lfemur 1.28024 -0.558229 -14.1866
ltibia 18.6156
lfoot -14.3928 -3.7359
ltoes -6.77484
1779
root 3.47646 17.5069 0.309616 591.288 88.7197 596.184
lowerback 2.40004 -0.185141 2.9249
upperback -2.06321 -0.130068 -0.268556
thorax -3.47854 -0.136786 -1.90991
lowerneck -0.00805226 -5.02995 -4.30492
upperneck -9.58933 -6.05509 8.13441
head -2.6897 -3.04291 3.56911
rclavicle -6.83322e-016 -2.68359e-015
rhumerus 43.7812 -24.977 -66.8386
rradius 65.2743
rwrist -59.4853
rhand -6.68303 14.5309
rfingers 7.12502
rthumb 19.1756 -14.5438
lclavicle -6.83322e-016 -2.68359e-015
lhumerus 42.7826 12.3834 78.8812
lradius 64.6757
lwrist 114.129
lhand -1.1898 9.35508
lfingers 7.12502
lthumb 24.4503 37.8147
rfemur 3.6588 -0.947697 20.6252
rtibia 19.562
rfoot -22.268 -7.02329
rtoes -5.29301
lfemur 1.28068 -0.5642 -14.3314
ltibia 18.564
lfoot -14.3488 -3.65352
ltoes -7.07359
